<mxfile host="app.diagrams.net" modified="2022-03-28T18:58:21.852Z" agent="5.0 (Windows NT 10.0; Win64; x64) AppleWebKit/537.36 (KHTML, like Gecko) Chrome/99.0.4844.82 Safari/537.36" etag="BRV83tUO2oAevKPcfXZ3" version="17.2.4" type="github">
  <diagram id="BS_AunBwUl3tJXPD3Mcs" name="Page-1">
    <mxGraphModel dx="2272" dy="737" grid="1" gridSize="10" guides="1" tooltips="1" connect="1" arrows="1" fold="1" page="1" pageScale="1" pageWidth="850" pageHeight="1100" math="0" shadow="0">
      <root>
        <mxCell id="0" />
        <mxCell id="1" parent="0" />
        <mxCell id="wGYtfCgb7JHefzf2lczv-38" value="&amp;nbsp;Access Application" style="edgeStyle=orthogonalEdgeStyle;rounded=0;orthogonalLoop=1;jettySize=auto;html=1;fontSize=15;entryX=0.25;entryY=0;entryDx=0;entryDy=0;fillColor=#f8cecc;strokeColor=#b85450;strokeWidth=2;" parent="1" source="wGYtfCgb7JHefzf2lczv-24" target="wGYtfCgb7JHefzf2lczv-43" edge="1">
          <mxGeometry x="0.2543" y="-20" relative="1" as="geometry">
            <mxPoint x="30" y="140" as="targetPoint" />
            <mxPoint y="1" as="offset" />
          </mxGeometry>
        </mxCell>
        <mxCell id="wGYtfCgb7JHefzf2lczv-24" value="B2B or B2C Users" style="sketch=0;outlineConnect=0;fontColor=#232F3E;gradientColor=none;fillColor=#232F3D;strokeColor=none;dashed=0;verticalLabelPosition=bottom;verticalAlign=top;align=center;html=1;fontSize=12;fontStyle=0;aspect=fixed;pointerEvents=1;shape=mxgraph.aws4.users;" parent="1" vertex="1">
          <mxGeometry x="80" y="20" width="90" height="90" as="geometry" />
        </mxCell>
        <mxCell id="wGYtfCgb7JHefzf2lczv-55" value="Authentication Provider" style="group;fillColor=#f8cecc;strokeColor=#b85450;labelPosition=center;verticalLabelPosition=bottom;align=left;verticalAlign=top;fontStyle=1;fontSize=14;" parent="1" vertex="1" connectable="0">
          <mxGeometry x="-250" y="270" width="390" height="190" as="geometry" />
        </mxCell>
        <mxCell id="wGYtfCgb7JHefzf2lczv-9" value="" style="rounded=0;whiteSpace=wrap;html=1;" parent="wGYtfCgb7JHefzf2lczv-55" vertex="1">
          <mxGeometry width="390" height="172.72727272727272" as="geometry" />
        </mxCell>
        <mxCell id="wGYtfCgb7JHefzf2lczv-45" value="" style="group" parent="wGYtfCgb7JHefzf2lczv-55" vertex="1" connectable="0">
          <mxGeometry x="14.96326530612245" y="20.955882352941178" width="164.59591836734694" height="83.82352941176471" as="geometry" />
        </mxCell>
        <mxCell id="wGYtfCgb7JHefzf2lczv-13" value="" style="rounded=0;whiteSpace=wrap;html=1;fontSize=32;labelPosition=center;verticalLabelPosition=bottom;align=center;verticalAlign=top;" parent="wGYtfCgb7JHefzf2lczv-45" vertex="1">
          <mxGeometry width="164.59591836734694" height="83.82352941176471" as="geometry" />
        </mxCell>
        <mxCell id="wGYtfCgb7JHefzf2lczv-19" value="" style="group" parent="wGYtfCgb7JHefzf2lczv-45" vertex="1" connectable="0">
          <mxGeometry x="13.167673469387756" y="5.294117647058824" width="138.26057142857144" height="75" as="geometry" />
        </mxCell>
        <mxCell id="wGYtfCgb7JHefzf2lczv-44" value="" style="group" parent="wGYtfCgb7JHefzf2lczv-19" vertex="1" connectable="0">
          <mxGeometry width="138.26057142857144" height="75" as="geometry" />
        </mxCell>
        <mxCell id="wGYtfCgb7JHefzf2lczv-1" value="B2B Identities" style="sketch=0;outlineConnect=0;fontColor=#232F3E;gradientColor=none;fillColor=#232F3D;strokeColor=none;dashed=0;verticalLabelPosition=bottom;verticalAlign=top;align=center;html=1;fontSize=12;fontStyle=0;aspect=fixed;pointerEvents=1;shape=mxgraph.aws4.users;" parent="wGYtfCgb7JHefzf2lczv-44" vertex="1">
          <mxGeometry x="13.167673469387754" y="4.411764705882352" width="21.17647058823529" height="21.17647058823529" as="geometry" />
        </mxCell>
        <mxCell id="wGYtfCgb7JHefzf2lczv-2" value="B2B2C Identities" style="sketch=0;outlineConnect=0;fontColor=#232F3E;gradientColor=none;fillColor=#232F3D;strokeColor=none;dashed=0;verticalLabelPosition=bottom;verticalAlign=top;align=center;html=1;fontSize=12;fontStyle=0;aspect=fixed;pointerEvents=1;shape=mxgraph.aws4.users;" parent="wGYtfCgb7JHefzf2lczv-44" vertex="1">
          <mxGeometry x="101.86604081632652" y="4.411764705882352" width="21.17647058823529" height="21.17647058823529" as="geometry" />
        </mxCell>
        <mxCell id="wGYtfCgb7JHefzf2lczv-18" value="&lt;font style=&quot;font-size: 15px;&quot;&gt;B2B Okta Org&lt;/font&gt;" style="text;html=1;strokeColor=none;fillColor=none;align=center;verticalAlign=middle;whiteSpace=wrap;rounded=0;fontSize=15;" parent="wGYtfCgb7JHefzf2lczv-44" vertex="1">
          <mxGeometry x="13.167673469387754" y="57.35294117647059" width="111.92522448979592" height="13.235294117647058" as="geometry" />
        </mxCell>
        <mxCell id="wGYtfCgb7JHefzf2lczv-8" value="" style="shape=image;html=1;verticalAlign=top;verticalLabelPosition=bottom;labelBackgroundColor=#ffffff;imageAspect=0;aspect=fixed;image=https://cdn1.iconfinder.com/data/icons/unicons-line-vol-5/24/okta-128.png" parent="wGYtfCgb7JHefzf2lczv-55" vertex="1">
          <mxGeometry x="7.479851311953348" y="124.33823529411765" width="52.529411764705884" height="52.529411764705884" as="geometry" />
        </mxCell>
        <mxCell id="wGYtfCgb7JHefzf2lczv-10" value="Okta Identity Provider" style="text;html=1;strokeColor=#b85450;fillColor=#f8cecc;align=center;verticalAlign=middle;whiteSpace=wrap;rounded=0;fontSize=20;" parent="wGYtfCgb7JHefzf2lczv-55" vertex="1">
          <mxGeometry x="58.49999999999999" y="140.125" width="233.44425" height="20.951818181818183" as="geometry" />
        </mxCell>
        <mxCell id="wGYtfCgb7JHefzf2lczv-46" value="" style="group" parent="wGYtfCgb7JHefzf2lczv-55" vertex="1" connectable="0">
          <mxGeometry x="194.52244897959184" y="20.955882352941178" width="164.59591836734694" height="83.82352941176471" as="geometry" />
        </mxCell>
        <mxCell id="wGYtfCgb7JHefzf2lczv-54" value="" style="group" parent="wGYtfCgb7JHefzf2lczv-46" vertex="1" connectable="0">
          <mxGeometry width="164.59591836734694" height="83.82352941176471" as="geometry" />
        </mxCell>
        <mxCell id="wGYtfCgb7JHefzf2lczv-47" value="" style="rounded=0;whiteSpace=wrap;html=1;fontSize=32;labelPosition=center;verticalLabelPosition=bottom;align=center;verticalAlign=top;" parent="wGYtfCgb7JHefzf2lczv-54" vertex="1">
          <mxGeometry width="164.59591836734694" height="83.82352941176471" as="geometry" />
        </mxCell>
        <mxCell id="wGYtfCgb7JHefzf2lczv-53" value="" style="group" parent="wGYtfCgb7JHefzf2lczv-54" vertex="1" connectable="0">
          <mxGeometry x="26.335346938775512" y="8.822426470588237" width="111.92522448979594" height="66.1797794117647" as="geometry" />
        </mxCell>
        <mxCell id="wGYtfCgb7JHefzf2lczv-50" value="B2B Identities" style="sketch=0;outlineConnect=0;fontColor=#232F3E;gradientColor=none;fillColor=#232F3D;strokeColor=none;dashed=0;verticalLabelPosition=bottom;verticalAlign=top;align=center;html=1;fontSize=12;fontStyle=0;aspect=fixed;pointerEvents=1;shape=mxgraph.aws4.users;" parent="wGYtfCgb7JHefzf2lczv-53" vertex="1">
          <mxGeometry x="40.28859183673469" width="20.883235294117647" height="20.883235294117647" as="geometry" />
        </mxCell>
        <mxCell id="wGYtfCgb7JHefzf2lczv-52" value="&lt;font style=&quot;font-size: 15px&quot;&gt;B2C Okta Org&lt;/font&gt;" style="text;html=1;strokeColor=none;fillColor=none;align=center;verticalAlign=middle;whiteSpace=wrap;rounded=0;fontSize=25;" parent="wGYtfCgb7JHefzf2lczv-53" vertex="1">
          <mxGeometry y="52.94448529411764" width="111.92522448979592" height="13.235294117647058" as="geometry" />
        </mxCell>
        <mxCell id="wGYtfCgb7JHefzf2lczv-28" value="Authenticate (credentials or SSO)" style="rounded=0;orthogonalLoop=1;jettySize=auto;html=1;entryX=0.25;entryY=0;entryDx=0;entryDy=0;fontSize=15;edgeStyle=orthogonalEdgeStyle;fillColor=#f8cecc;strokeColor=#b85450;strokeWidth=2;" parent="1" source="wGYtfCgb7JHefzf2lczv-24" target="wGYtfCgb7JHefzf2lczv-9" edge="1">
          <mxGeometry x="0.3816" y="43" relative="1" as="geometry">
            <mxPoint x="495" y="290" as="targetPoint" />
            <Array as="points">
              <mxPoint x="-152" y="70" />
            </Array>
            <mxPoint y="1" as="offset" />
          </mxGeometry>
        </mxCell>
        <mxCell id="wGYtfCgb7JHefzf2lczv-57" style="edgeStyle=none;rounded=0;orthogonalLoop=1;jettySize=auto;html=1;fontSize=20;fillColor=#f8cecc;strokeColor=#b85450;strokeWidth=2;" parent="1" source="wGYtfCgb7JHefzf2lczv-43" target="wGYtfCgb7JHefzf2lczv-9" edge="1">
          <mxGeometry relative="1" as="geometry" />
        </mxCell>
        <mxCell id="wGYtfCgb7JHefzf2lczv-58" value="Access JSON Web Keys" style="edgeLabel;html=1;align=center;verticalAlign=middle;resizable=0;points=[];fontSize=12;" parent="wGYtfCgb7JHefzf2lczv-57" vertex="1" connectable="0">
          <mxGeometry x="-0.0989" y="-4" relative="1" as="geometry">
            <mxPoint x="-12" y="17" as="offset" />
          </mxGeometry>
        </mxCell>
        <mxCell id="wGYtfCgb7JHefzf2lczv-59" value="Authorization Management System " style="rounded=0;whiteSpace=wrap;html=1;fontSize=15;labelPosition=center;verticalLabelPosition=bottom;align=center;verticalAlign=top;fontStyle=1" parent="1" vertex="1">
          <mxGeometry x="75" y="550" width="260" height="210" as="geometry" />
        </mxCell>
        <mxCell id="wGYtfCgb7JHefzf2lczv-65" value="Add User" style="edgeStyle=orthogonalEdgeStyle;rounded=0;orthogonalLoop=1;jettySize=auto;html=1;fontSize=15;fillColor=#d5e8d4;strokeColor=#82b366;strokeWidth=2;" parent="1" source="wGYtfCgb7JHefzf2lczv-43" target="wGYtfCgb7JHefzf2lczv-60" edge="1">
          <mxGeometry relative="1" as="geometry" />
        </mxCell>
        <mxCell id="wGYtfCgb7JHefzf2lczv-66" style="edgeStyle=orthogonalEdgeStyle;rounded=0;orthogonalLoop=1;jettySize=auto;html=1;entryX=1;entryY=0.5;entryDx=0;entryDy=0;fontSize=15;fillColor=#f8cecc;strokeColor=#b85450;strokeWidth=2;" parent="1" source="wGYtfCgb7JHefzf2lczv-43" target="wGYtfCgb7JHefzf2lczv-62" edge="1">
          <mxGeometry relative="1" as="geometry" />
        </mxCell>
        <mxCell id="wGYtfCgb7JHefzf2lczv-67" value="access checks" style="edgeLabel;html=1;align=center;verticalAlign=middle;resizable=0;points=[];fontSize=15;" parent="wGYtfCgb7JHefzf2lczv-66" vertex="1" connectable="0">
          <mxGeometry x="-0.142" y="2" relative="1" as="geometry">
            <mxPoint as="offset" />
          </mxGeometry>
        </mxCell>
        <mxCell id="wGYtfCgb7JHefzf2lczv-68" style="edgeStyle=orthogonalEdgeStyle;rounded=0;orthogonalLoop=1;jettySize=auto;html=1;exitX=0;exitY=0.5;exitDx=0;exitDy=0;entryX=0.5;entryY=1;entryDx=0;entryDy=0;fontSize=15;fillColor=#d5e8d4;strokeColor=#82b366;strokeWidth=2;" parent="1" source="wGYtfCgb7JHefzf2lczv-60" target="wGYtfCgb7JHefzf2lczv-9" edge="1">
          <mxGeometry relative="1" as="geometry" />
        </mxCell>
        <mxCell id="wGYtfCgb7JHefzf2lczv-69" value="Add User Identity" style="edgeLabel;html=1;align=center;verticalAlign=middle;resizable=0;points=[];fontSize=15;" parent="wGYtfCgb7JHefzf2lczv-68" vertex="1" connectable="0">
          <mxGeometry x="0.1399" y="-1" relative="1" as="geometry">
            <mxPoint x="-1" y="-29" as="offset" />
          </mxGeometry>
        </mxCell>
        <mxCell id="wGYtfCgb7JHefzf2lczv-60" value="User Management" style="rounded=0;whiteSpace=wrap;html=1;fontSize=12;fillColor=#d5e8d4;strokeColor=#82b366;" parent="1" vertex="1">
          <mxGeometry x="120" y="560" width="180" height="50" as="geometry" />
        </mxCell>
        <mxCell id="wGYtfCgb7JHefzf2lczv-61" value="Access Policy Management" style="rounded=0;whiteSpace=wrap;html=1;fontSize=12;fillColor=#f8cecc;strokeColor=#b85450;" parent="1" vertex="1">
          <mxGeometry x="120" y="620" width="180" height="50" as="geometry" />
        </mxCell>
        <mxCell id="wGYtfCgb7JHefzf2lczv-62" value="Access Checks (AuthZ)" style="rounded=0;whiteSpace=wrap;html=1;fontSize=12;fillColor=#f8cecc;strokeColor=#b85450;" parent="1" vertex="1">
          <mxGeometry x="120" y="680" width="180" height="50" as="geometry" />
        </mxCell>
        <mxCell id="wGYtfCgb7JHefzf2lczv-63" value="" style="group;fillColor=#dae8fc;strokeColor=#6c8ebf;fontStyle=0" parent="1" vertex="1" connectable="0">
          <mxGeometry x="296" y="270" width="258" height="171" as="geometry" />
        </mxCell>
        <mxCell id="wGYtfCgb7JHefzf2lczv-43" value="&lt;b&gt;B2B or B2C Applications&lt;/b&gt;" style="rounded=0;whiteSpace=wrap;html=1;fontSize=15;labelPosition=center;verticalLabelPosition=bottom;align=center;verticalAlign=top;" parent="wGYtfCgb7JHefzf2lczv-63" vertex="1">
          <mxGeometry width="258" height="171" as="geometry" />
        </mxCell>
        <mxCell id="wGYtfCgb7JHefzf2lczv-34" value="" style="group;fillColor=#dae8fc;strokeColor=#6c8ebf;" parent="wGYtfCgb7JHefzf2lczv-63" vertex="1" connectable="0">
          <mxGeometry x="19.846153846153847" y="85.5" width="218.30769230769232" height="62.18181818181819" as="geometry" />
        </mxCell>
        <mxCell id="wGYtfCgb7JHefzf2lczv-35" value="" style="rounded=0;whiteSpace=wrap;html=1;fontSize=15;fillColor=#dae8fc;strokeColor=#6c8ebf;" parent="wGYtfCgb7JHefzf2lczv-34" vertex="1">
          <mxGeometry width="218.30769230769232" height="62.18181818181819" as="geometry" />
        </mxCell>
        <mxCell id="wGYtfCgb7JHefzf2lczv-36" value="Application - 1" style="text;html=1;strokeColor=none;fillColor=none;align=center;verticalAlign=middle;whiteSpace=wrap;rounded=0;fontSize=15;" parent="wGYtfCgb7JHefzf2lczv-34" vertex="1">
          <mxGeometry x="37.18681318681319" y="45.81818181818183" width="124.74725274725276" height="10.363636363636363" as="geometry" />
        </mxCell>
        <mxCell id="wGYtfCgb7JHefzf2lczv-37" value="User Application Account" style="sketch=0;outlineConnect=0;fontColor=#232F3E;gradientColor=none;fillColor=#232F3D;strokeColor=none;dashed=0;verticalLabelPosition=middle;verticalAlign=middle;align=left;html=1;fontSize=12;fontStyle=0;aspect=fixed;pointerEvents=1;shape=mxgraph.aws4.users;labelPosition=right;" parent="wGYtfCgb7JHefzf2lczv-34" vertex="1">
          <mxGeometry x="9.923076923076923" y="5.184409090909091" width="33.31390909090909" height="33.31390909090909" as="geometry" />
        </mxCell>
        <mxCell id="wGYtfCgb7JHefzf2lczv-39" value="" style="group;fillColor=#dae8fc;strokeColor=#6c8ebf;" parent="wGYtfCgb7JHefzf2lczv-63" vertex="1" connectable="0">
          <mxGeometry x="19.846153846153847" y="15.545454545454547" width="218.30769230769232" height="62.18181818181819" as="geometry" />
        </mxCell>
        <mxCell id="wGYtfCgb7JHefzf2lczv-40" value="" style="rounded=0;whiteSpace=wrap;html=1;fontSize=15;fillColor=#dae8fc;strokeColor=#6c8ebf;" parent="wGYtfCgb7JHefzf2lczv-39" vertex="1">
          <mxGeometry width="218.30769230769232" height="62.18181818181819" as="geometry" />
        </mxCell>
        <mxCell id="wGYtfCgb7JHefzf2lczv-41" value="Application - 2" style="text;html=1;strokeColor=none;fillColor=none;align=center;verticalAlign=middle;whiteSpace=wrap;rounded=0;fontSize=15;" parent="wGYtfCgb7JHefzf2lczv-39" vertex="1">
          <mxGeometry x="43.236813186813194" y="44.49818181818183" width="124.74725274725276" height="10.363636363636363" as="geometry" />
        </mxCell>
        <mxCell id="wGYtfCgb7JHefzf2lczv-42" value="User Application Account" style="sketch=0;outlineConnect=0;fontColor=#232F3E;gradientColor=none;fillColor=#232F3D;strokeColor=none;dashed=0;verticalLabelPosition=middle;verticalAlign=middle;align=left;html=1;fontSize=12;fontStyle=0;aspect=fixed;pointerEvents=1;shape=mxgraph.aws4.users;labelPosition=right;" parent="wGYtfCgb7JHefzf2lczv-39" vertex="1">
          <mxGeometry x="9.923076923076923" y="5.184409090909091" width="33.31390909090909" height="33.31390909090909" as="geometry" />
        </mxCell>
        <mxCell id="tJAUmdHgURcMuOd_s7cF-12" value="&lt;b&gt;&lt;font style=&quot;font-size: 21px&quot; color=&quot;#00274f&quot;&gt;1&lt;/font&gt;&lt;/b&gt;" style="text;html=1;strokeColor=#6c8ebf;fillColor=#dae8fc;align=center;verticalAlign=middle;whiteSpace=wrap;rounded=0;" vertex="1" parent="1">
          <mxGeometry x="-290" y="310" width="30" height="30" as="geometry" />
        </mxCell>
        <mxCell id="tJAUmdHgURcMuOd_s7cF-13" value="&lt;b&gt;&lt;font style=&quot;font-size: 21px&quot; color=&quot;#00274f&quot;&gt;4&lt;/font&gt;&lt;/b&gt;" style="text;html=1;strokeColor=#6c8ebf;fillColor=#dae8fc;align=center;verticalAlign=middle;whiteSpace=wrap;rounded=0;" vertex="1" parent="1">
          <mxGeometry x="220" y="320" width="30" height="30" as="geometry" />
        </mxCell>
        <mxCell id="tJAUmdHgURcMuOd_s7cF-14" value="&lt;b&gt;&lt;font style=&quot;font-size: 21px&quot; color=&quot;#00274f&quot;&gt;4&lt;/font&gt;&lt;/b&gt;" style="text;html=1;strokeColor=#6c8ebf;fillColor=#dae8fc;align=center;verticalAlign=middle;whiteSpace=wrap;rounded=0;" vertex="1" parent="1">
          <mxGeometry x="-140" y="180" width="30" height="30" as="geometry" />
        </mxCell>
        <mxCell id="tJAUmdHgURcMuOd_s7cF-15" value="&lt;b&gt;&lt;font style=&quot;font-size: 21px&quot; color=&quot;#00274f&quot;&gt;5&lt;/font&gt;&lt;/b&gt;" style="text;html=1;strokeColor=#6c8ebf;fillColor=#dae8fc;align=center;verticalAlign=middle;whiteSpace=wrap;rounded=0;" vertex="1" parent="1">
          <mxGeometry x="437" y="535" width="30" height="30" as="geometry" />
        </mxCell>
        <mxCell id="tJAUmdHgURcMuOd_s7cF-17" value="&lt;b&gt;&lt;font style=&quot;font-size: 21px&quot; color=&quot;#00274f&quot;&gt;6&lt;/font&gt;&lt;/b&gt;" style="text;html=1;strokeColor=#6c8ebf;fillColor=#dae8fc;align=center;verticalAlign=middle;whiteSpace=wrap;rounded=0;" vertex="1" parent="1">
          <mxGeometry x="240" y="460" width="30" height="30" as="geometry" />
        </mxCell>
        <mxCell id="tJAUmdHgURcMuOd_s7cF-18" value="&lt;b&gt;&lt;font style=&quot;font-size: 21px&quot; color=&quot;#00274f&quot;&gt;2&lt;/font&gt;&lt;/b&gt;" style="text;html=1;strokeColor=#6c8ebf;fillColor=#dae8fc;align=center;verticalAlign=middle;whiteSpace=wrap;rounded=0;" vertex="1" parent="1">
          <mxGeometry x="30" y="650" width="30" height="30" as="geometry" />
        </mxCell>
        <mxCell id="tJAUmdHgURcMuOd_s7cF-19" value="&lt;b&gt;&lt;font style=&quot;font-size: 21px&quot; color=&quot;#00274f&quot;&gt;3&lt;/font&gt;&lt;/b&gt;" style="text;html=1;strokeColor=#6c8ebf;fillColor=#dae8fc;align=center;verticalAlign=middle;whiteSpace=wrap;rounded=0;" vertex="1" parent="1">
          <mxGeometry x="565" y="320" width="30" height="30" as="geometry" />
        </mxCell>
      </root>
    </mxGraphModel>
  </diagram>
</mxfile>
